<svg version="1" xmlns="http://www.w3.org/2000/svg" width="1365.333" height="1365.333" viewBox="0 0 1024.000000 1024.000000"><path d="M509.7 42.6c-.1.1-6.3.4-13.7.8-14.5.7-16.3.8-31.5 3.2-17.1 2.6-50 11.5-61 16.4-1.1.5-5.4 2.3-9.5 4-90.9 38.4-157.8 122.6-175.9 221.5-3.8 20.9-4.3 28.2-4.6 63.8-.1 16.9-.4 31-.7 31.2-.2.3-2.9.7-5.9.9-20.8 1.7-38.5 9.8-53.5 24.6-10.4 10.3-18.8 24.6-22.5 38.4-.6 2.2-1.4 5-1.7 6.1-.4 1.1-.8 112.7-.9 248-.1 233.2-.1 246.4 1.6 254.5 1.8 8.5 8.7 26 10.3 26 .4 0 .8.5.8 1 0 2.7 11.5 16 19.2 22.2 10.1 8.4 24.4 14.9 38.3 17.5 5.4 1.1 621.8 1 627.5 0 5.7-1.1 15.1-4.2 21.5-7.2 23.9-11.2 43.2-36.7 47.3-62.5.9-5.8.9-491.9 0-498.1-.9-6.6-5.1-18.5-8.9-25.5-8.9-16.5-23.2-30-40.1-37.7-8.3-3.8-17.7-6.3-26.8-7.2-1.9-.2-110.2-.4-240.6-.4l-237.2-.1.3-27.8c.3-27.8 1.4-39.6 5-54.3 5-20.3 15.4-43.2 27.3-59.9 11.9-16.9 34.2-37.4 51.7-47.5 17.8-10.4 41.4-18.8 62-22 8.6-1.3 38.1-1.4 47 0 38.5 5.6 69.1 20.9 96.1 47.9 20 20 32.2 39.6 41.3 66.1l4.1 12 65.1.2 65.1.3-.6-6.1c-.3-3.3-2-11.8-3.7-18.7-1.7-7-3.2-13.4-3.4-14.2-.6-2.8-7.5-23.5-8.5-25.5-.5-1.1-2.3-5.5-4-9.7-8.2-20.1-22-44-36.5-63.3-10.8-14.2-14.7-18.7-28-32-39.9-40-89.9-67.4-145-79.7-4.9-1.1-10.1-2.1-11.5-2.3-1.4-.2-5.2-.8-8.5-1.4-7.9-1.3-14.1-2-24.5-2.7-10.8-.6-22-1.1-22.3-.8z"/></svg>